HIERARCHY
ROOT RootJoint
{
    OFFSET   0.000000   0.000000   0.000000
    CHANNELS 6 Xposition Yposition Zposition Xrotation Yrotation Zrotation
    JOINT pelvis_lowerback
    {
        OFFSET   0.000000   0.093605   0.000000
        CHANNELS 3 Xrotation Yrotation Zrotation
        JOINT lowerback_torso
        {
            OFFSET   0.000000   0.100000   0.000000
            CHANNELS 3 Xrotation Yrotation Zrotation
            JOINT torso_head
            {
                OFFSET   0.000000   0.282350   0.000000
                CHANNELS 3 Xrotation Yrotation Zrotation
                End Site
                {
                    OFFSET   0.000000   0.192650   0.000000
                }
            }
            JOINT rTorso_Clavicle
            {
                OFFSET  -0.001000   0.157500   0.000000
                CHANNELS 3 Xrotation Yrotation Zrotation
                JOINT rShoulder
                {
                    OFFSET  -0.117647   0.000000   0.000000
                    CHANNELS 3 Xrotation Yrotation Zrotation
                    JOINT rElbow
                    {
                        OFFSET  -0.245000   0.000000   0.000000
                        CHANNELS 3 Xrotation Yrotation Zrotation
                        JOINT rWrist
                        {
                            OFFSET  -0.240000   0.000000   0.000000
                            CHANNELS 3 Xrotation Yrotation Zrotation
                            End Site
                            {
                                OFFSET  -0.116353  -0.002500   0.000000
                            }
                        }
                    }
                }
            }
            JOINT lTorso_Clavicle
            {
                OFFSET   0.001000   0.157500   0.000000
                CHANNELS 3 Xrotation Yrotation Zrotation
                JOINT lShoulder
                {
                    OFFSET   0.117647   0.000000   0.000000
                    CHANNELS 3 Xrotation Yrotation Zrotation
                    JOINT lElbow
                    {
                        OFFSET   0.245000   0.000000   0.000000
                        CHANNELS 3 Xrotation Yrotation Zrotation
                        JOINT lWrist
                        {
                            OFFSET   0.240000   0.000000   0.000000
                            CHANNELS 3 Xrotation Yrotation Zrotation
                            End Site
                            {
                                OFFSET   0.116353  -0.002500   0.000000
                            }
                        }
                    }
                }
            }
        }
    }
    JOINT rHip
    {
        OFFSET  -0.100000  -0.051395   0.000000
        CHANNELS 3 Xrotation Yrotation Zrotation
        JOINT rKnee
        {
            OFFSET   0.000000  -0.410000   0.000000
            CHANNELS 3 Xrotation Yrotation Zrotation
            JOINT rAnkle
            {
                OFFSET   0.000000  -0.390000   0.000000
                CHANNELS 3 Xrotation Yrotation Zrotation
                JOINT rToeJoint
                {
                    OFFSET   0.000000  -0.050000   0.130000
                    CHANNELS 3 Xrotation Yrotation Zrotation
                    End Site
                    {
                        OFFSET  -0.010000   0.002000   0.060000
                    }
                }
            }
        }
    }
    JOINT lHip
    {
        OFFSET   0.100000  -0.051395   0.000000
        CHANNELS 3 Xrotation Yrotation Zrotation
        JOINT lKnee
        {
            OFFSET   0.000000  -0.410000   0.000000
            CHANNELS 3 Xrotation Yrotation Zrotation
            JOINT lAnkle
            {
                OFFSET   0.000000  -0.390000   0.000000
                CHANNELS 3 Xrotation Yrotation Zrotation
                JOINT lToeJoint
                {
                    OFFSET   0.000000  -0.050000   0.130000
                    CHANNELS 3 Xrotation Yrotation Zrotation
                    End Site
                    {
                        OFFSET   0.010000   0.002000   0.060000
                    }
                }
            }
        }
    }
}
MOTION
Frames: 14
Frame Time:   0.008333
 -2.110318   0.938905   3.891683  12.854414  70.503147 -10.823806   6.631702  -1.682952   4.252715  -1.166933  -3.278718   3.481626   2.833953  -0.618583   0.549033 -10.020507 -14.156085 -18.234321 -17.954345  -4.222726 -12.433035   0.001213  -0.031599  -0.000025   1.562988  -1.731555   3.701624  -6.126985  13.738839  16.539711  -4.565264   8.129291   6.357837  -0.002861   1.952987   0.003559   4.384545  -2.431658  -8.345172  -1.301112   1.088204  -5.455450  10.237978   0.000020   0.000038   2.464434   0.912312   3.962171 -23.886773   0.000550  -0.001441   1.862397   2.614512  -0.921029   8.710500  -0.001002  -0.000691   5.454354   6.517049  -0.898080 -27.645424  -0.000198  -0.007831
 -2.109509   0.938858   3.891365  12.462848  70.517952 -10.412545   6.666559  -1.697943   4.128784  -1.240964  -3.338066   3.391481   2.908591  -0.687680   0.595783 -10.118134 -13.998241 -18.205635 -18.224349  -3.984070 -12.465955   0.000968  -0.025275   0.000015   1.544135  -1.761108   3.584940  -6.275262  13.553766  16.555467  -4.848407   7.887023   6.408552  -0.003093   2.266587   0.004527   4.352134  -2.293473  -8.309086  -1.106529   0.976137  -5.511237  10.222522   0.000017   0.000046   2.374767   0.814167   4.010231 -23.724316   0.000479  -0.001463   2.181407   2.627351  -1.010907   8.468996  -0.000882  -0.000561   5.448539   6.538816  -0.906210 -28.171334  -0.000274  -0.006461
 -2.108694   0.938839   3.891123  12.038166  70.525092  -9.982201   6.689068  -1.708207   4.005494  -1.311742  -3.392519   3.308265   2.975287  -0.753509   0.635853 -10.199616 -13.821060 -18.149125 -18.474233  -3.743870 -12.467779   0.000775  -0.020216   0.000040   1.516459  -1.762856   3.497483  -6.403475  13.348998  16.567680  -5.111667   7.634640   6.453113  -0.003231   2.550080   0.005112   4.307219  -2.192986  -8.262448  -0.909560   0.869100  -5.549884  10.218399   0.000014   0.000041   2.295342   0.722966   4.054494 -23.535960   0.000422  -0.001526   2.488739   2.641808  -1.083329   8.266953  -0.000763  -0.000445   5.460127   6.564268  -0.909919 -28.629171  -0.000278  -0.005308
 -2.107874   0.938831   3.890930  11.609858  70.525596  -9.556809   6.700629  -1.717205   3.887280  -1.382528  -3.442052   3.231425   3.033519  -0.814951   0.670991 -10.268881 -13.638453 -18.077501 -18.705361  -3.510067 -12.451377   0.000622  -0.016170   0.000054   1.487925  -1.741150   3.447080  -6.515844  13.139200  16.574165  -5.355501   7.383616   6.489971  -0.003289   2.808500   0.005408   4.258802  -2.131030  -8.219240  -0.717349   0.769578  -5.578037  10.221982   0.000011   0.000029   2.223506   0.640030   4.095840 -23.341412   0.000372  -0.001572   2.782543   2.656903  -1.143843   8.090038  -0.000655  -0.000344   5.482520   6.591403  -0.911436 -29.022819  -0.000256  -0.004345
 -2.107050   0.938826   3.890772  11.190841  70.520823  -9.145895   6.703351  -1.726054   3.775546  -1.453792  -3.487939   3.160465   3.085006  -0.872262   0.702683 -10.329678 -13.458156 -17.998330 -18.919957  -3.286799 -12.424300   0.000499  -0.012934   0.000060   1.459592  -1.706185   3.422935  -6.616442  12.932339  16.575390  -5.581931   7.140330   6.519797  -0.003279   3.046009   0.005498   4.209042  -2.094796  -8.182732  -0.532060   0.677393  -5.599520  10.230483   0.000008   0.000015   2.157530   0.564425   4.134599 -23.154209   0.000327  -0.001579   3.062437   2.672115  -1.196040   7.931701  -0.000561  -0.000260   5.510616   6.618985  -0.911795 -29.359363  -0.000225  -0.003546
 -2.106226   0.938817   3.890641  10.787522  70.511517  -8.753671   6.698986  -1.735135   3.670621  -1.525260  -3.530942   3.094858   3.131148  -0.925726   0.731750 -10.384453 -13.284649 -17.916190 -19.119745  -3.076213 -12.391286   0.000401  -0.010345   0.000061   1.431957  -1.665382   3.415708  -6.707895  12.733015  16.572418  -5.792590   6.908299   6.543757  -0.003213   3.265625   0.005441   4.159362  -2.073919  -8.152862  -0.354613   0.591968  -5.616685  10.242133   0.000005   0.000001   2.096255   0.495145   4.170957 -22.981994   0.000286  -0.001543   3.328495   2.687352  -1.242314   7.788250  -0.000478  -0.000191   5.541122   6.646485  -0.911693 -29.646775  -0.000195  -0.002886
 -2.105404   0.938798   3.890511  10.399252  70.500289  -8.375277   6.690711  -1.745337   3.572386  -1.595784  -3.572161   3.033079   3.172842  -0.975633   0.758487 -10.434765 -13.120422 -17.834822 -19.306088  -2.879142 -12.355893   0.000323  -0.008274   0.000058   1.405283  -1.623774   3.418369  -6.791889  12.543424  16.566017  -5.988831   6.689166   6.562662  -0.003102   3.469558   0.005280   4.110648  -2.061487  -8.129624  -0.190078   0.516529  -5.631966  10.245816   0.000003  -0.000003   2.040293   0.428461   4.149056 -22.796592   0.000333  -0.001481   3.581944   2.701560  -1.288475   7.658048  -0.000410  -0.000136   5.572128   6.672672  -0.911175 -29.892988  -0.000170  -0.002345
 -2.104581   0.938513   3.890442   9.989362  70.499211  -7.995991   6.662898  -1.721336   3.480958  -1.654007  -3.618143   2.963675   3.214351  -0.995155   0.792681 -10.498739 -12.947978 -17.689663 -19.653789  -2.626851 -12.306286   0.000261  -0.006618   0.000057   1.343764  -1.614639   3.224202  -6.890815  12.297050  16.524442  -6.410626   6.394167   6.628982  -0.002981   3.633000   0.005331   4.019395  -1.945084  -7.957630   0.009503   0.472226  -5.625667  10.247048   0.000002  -0.000003   1.995459   0.343703   4.161680 -23.131215   0.000178  -0.000769   3.874413   2.720073  -1.317546   7.520642  -0.000360  -0.000107   5.303653   6.706576  -0.861276 -29.367531  -0.000190  -0.001762
 -2.103819   0.938003   3.890373   9.639111  70.518926  -7.682579   6.625078  -1.701174   3.391422  -1.719553  -3.665858   2.899381   3.248715  -1.011490   0.822184 -10.555260 -12.768705 -17.516372 -19.979099  -2.386280 -12.229571   0.000211  -0.005293   0.000054   1.276740  -1.593837   3.050691  -6.975144  12.034848  16.464201  -6.803473   6.093673   6.673688  -0.002859   3.775625   0.005179   3.916493  -1.874090  -7.784380   0.202072   0.430524  -5.612251  10.240721   0.000002  -0.000001   1.929986   0.265660   4.178752 -23.711662   0.000027  -0.000066   4.152211   2.740683  -1.337626   7.376384  -0.000329  -0.000115   5.027114   6.743532  -0.814382 -29.139355  -0.000179  -0.001299
 -2.103126   0.937304   3.890280   9.344257  70.556439  -7.427729   6.584837  -1.686287   3.306016  -1.788443  -3.714715   2.840025   3.277406  -1.026506   0.848224 -10.605750 -12.590679 -17.326775 -20.282797  -2.160698 -12.135563   0.000171  -0.004234   0.000050   1.211509  -1.566631   2.919461  -7.048830  11.771729  16.388350  -7.168654   5.799834   6.699134  -0.002731   3.903311   0.004905   3.812747  -1.839582  -7.636051   0.384161   0.392581  -5.596117  10.229531   0.000001   0.000000   1.846910   0.195023   4.199727 -24.499029  -0.000094   0.000472   4.411180   2.762271  -1.352257   7.231411  -0.000311  -0.000147   4.747555   6.780699  -0.771028 -29.175463  -0.000140  -0.001064
 -2.102468   0.936847   3.890130   9.090492  70.590159  -7.249524   6.552820  -1.665729   3.260105  -1.859721  -3.756434   2.799192   3.303889  -1.040258   0.872199 -10.652639 -12.417600 -17.109876 -20.567147  -1.953030 -12.024512   0.000139  -0.003386   0.000044   1.148155  -1.532859   2.814267  -7.119075  11.520285  16.272896  -7.509617   5.524435   6.695389  -0.002630   4.021193   0.004578   3.710947  -1.824306  -7.519262   0.553995   0.370325  -5.553498  10.211827  -0.000002  -0.000000   1.614308   0.145296   4.244065 -24.103940  -0.000101   0.000239   4.646446   2.765901  -1.323523   7.082550  -0.000287  -0.000146   4.450669   6.800891  -0.725940 -28.807740  -0.000115  -0.000718
 -2.101843   0.936465   3.889927   8.863757  70.630092  -7.100717   6.523680  -1.647123   3.216045  -1.926592  -3.795422   2.766491   3.328921  -1.053112   0.896038 -10.696129 -12.250874 -16.886620 -20.833356  -1.762553 -11.902114   0.000113  -0.002708   0.000039   1.088033  -1.506916   2.752114  -7.184002  11.278762  16.150893  -7.827768   5.264440   6.676924  -0.002516   4.130321   0.004225   3.612505  -1.816237  -7.439368   0.709528   0.348967  -5.509449  10.188422  -0.000006  -0.000003   1.442662   0.100501   4.286900 -23.810746  -0.000099   0.000114   4.861028   2.772483  -1.293831   6.940376  -0.000273  -0.000156   4.197272   6.823644  -0.683583 -28.481963  -0.000097  -0.000422
 -2.101236   0.936115   3.889673   8.654972  70.676645  -6.968086   6.497256  -1.630170   3.172556  -1.988573  -3.832211   2.736900   3.352407  -1.065109   0.918129 -10.736491 -12.092133 -16.665423 -21.082377  -1.586754 -11.776734   0.000092  -0.002166   0.000034   1.030714  -1.486330   2.717959  -7.243608  11.048483  16.029036  -8.124515   5.019238   6.651541  -0.002384   4.231259   0.003861   3.517542  -1.813803  -7.380539   0.854023   0.326821  -5.468783  10.167827  -0.000010  -0.000005   1.297839   0.056703   4.329865 -23.575111  -0.000090   0.000041   5.060367   2.780677  -1.267677   6.807018  -0.000264  -0.000170   3.964685   6.846761  -0.643507 -28.173717  -0.000079  -0.000165
 -2.100616   0.935778   3.889385   8.303737  70.719925  -6.660942   6.525400  -1.592115   3.104699  -2.056808  -3.872495   2.682195   3.349184  -1.078408   0.945011 -10.787746 -11.937032 -16.371548 -21.473995  -1.365864 -11.665776   0.000231   0.045070   0.000321   0.939720  -1.481700   2.519184  -7.296949  10.831785  15.850629  -8.585743   4.732851   6.639417  -0.001894   4.227780   0.003067   3.389459  -1.734939  -7.144079   1.010600   0.327220  -5.469310  10.217086   0.000005   0.000008   1.113511  -0.001444   4.361341 -23.349234  -0.000054  -0.000010   5.308719   2.772743  -1.284628   6.668379  -0.000259  -0.000157   3.777248   6.859689  -0.559521 -27.922630  -0.000128  -0.000103
